<?xml version="1.0" encoding="UTF-8" standalone="no"?>
<!-- Created with Inkscape (http://www.inkscape.org/) -->

<svg
   width="20"
   height="20"
   viewBox="0 0 20 20"
   version="1.1"
   id="svg1"
   inkscape:version="1.3.2 (091e20ef0f, 2023-11-25)"
   sodipodi:docname="explode.svg"
   xmlns:inkscape="http://www.inkscape.org/namespaces/inkscape"
   xmlns:sodipodi="http://sodipodi.sourceforge.net/DTD/sodipodi-0.dtd"
   xmlns="http://www.w3.org/2000/svg"
   xmlns:svg="http://www.w3.org/2000/svg">
  <sodipodi:namedview
     id="namedview1"
     pagecolor="#ffffff"
     bordercolor="#000000"
     borderopacity="0.25"
     inkscape:showpageshadow="2"
     inkscape:pageopacity="0.0"
     inkscape:pagecheckerboard="0"
     inkscape:deskcolor="#d1d1d1"
     inkscape:document-units="mm"
     showgrid="true"
     inkscape:zoom="45.254834"
     inkscape:cx="6.7396115"
     inkscape:cy="11.98767"
     inkscape:window-width="2511"
     inkscape:window-height="1401"
     inkscape:window-x="0"
     inkscape:window-y="0"
     inkscape:window-maximized="0"
     inkscape:current-layer="layer1">
    <inkscape:grid
       id="grid1"
       units="px"
       originx="0"
       originy="0"
       spacingx="1"
       spacingy="1"
       empcolor="#0099e5"
       empopacity="0.30196078"
       color="#0099e5"
       opacity="0.14901961"
       empspacing="5"
       dotted="false"
       gridanglex="30"
       gridanglez="30"
       visible="true" />
  </sodipodi:namedview>
  <defs
     id="defs1" />
  <g
     inkscape:label="Calque 1"
     inkscape:groupmode="layer"
     id="layer1">
    <path
       id="path9"
       style="fill:none;fill-opacity:1;stroke:#000000;stroke-width:1;stroke-linecap:square;stroke-miterlimit:4;stroke-dasharray:none;stroke-dashoffset:10.9;stroke-opacity:1;paint-order:stroke fill markers"
       d="M 6,2 6.5664062,5.6171875 5,5 6.3222656,6.8808594 2.6497944,7.6636556 4.4882812,10.783203 3,12 5.4589844,11.626953 1.5904905,18.545533 7.921875,15.164062 8.2691356,16.555017 9.1386719,14.746094 14,18.257935 13.433594,14.382812 15,15 13.677734,13.119141 18.39999,13 15.511719,9.2167969 17,8.2541408 14.541016,8.3730469 17,3 12.078125,4.8359375 12,4 10.861328,5.2539062 Z"
       sodipodi:nodetypes="ccccccccccccccccccccccccc" />
    <path
       id="path11"
       style="fill:none;fill-opacity:1;stroke:#000000;stroke-width:1;stroke-linecap:square;stroke-miterlimit:4;stroke-dasharray:none;stroke-dashoffset:10.9;stroke-opacity:1;paint-order:stroke fill markers"
       d="M 10.503592,7.7472239 9.8144531,8.9648438 8.7776481,8.6603005 9.0117188,9.6425781 7.4610417,9.7434849 9.1972656,10.677734 8.5083597,12 10.185547,11.035156 11.35193,12.403899 10.988281,10.357422 12.597826,10 10.802734,9.3222656 Z"
       sodipodi:nodetypes="ccccccccccccc" />
  </g>
</svg>
