<?xml version="1.0" encoding="UTF-8" standalone="no"?>
<!-- Created with Inkscape (http://www.inkscape.org/) -->

<svg
   width="20"
   height="20"
   viewBox="0 0 20 20"
   version="1.1"
   id="svg1"
   inkscape:version="1.3.2 (091e20ef0f, 2023-11-25)"
   sodipodi:docname="plus20.svg"
   xmlns:inkscape="http://www.inkscape.org/namespaces/inkscape"
   xmlns:sodipodi="http://sodipodi.sourceforge.net/DTD/sodipodi-0.dtd"
   xmlns="http://www.w3.org/2000/svg"
   xmlns:svg="http://www.w3.org/2000/svg">
  <sodipodi:namedview
     id="namedview1"
     pagecolor="#ffffff"
     bordercolor="#000000"
     borderopacity="0.25"
     inkscape:showpageshadow="2"
     inkscape:pageopacity="0.0"
     inkscape:pagecheckerboard="0"
     inkscape:deskcolor="#d1d1d1"
     inkscape:document-units="mm"
     showgrid="true"
     inkscape:zoom="45.254834"
     inkscape:cx="11.976621"
     inkscape:cy="11.98767"
     inkscape:window-width="2511"
     inkscape:window-height="1401"
     inkscape:window-x="0"
     inkscape:window-y="0"
     inkscape:window-maximized="0"
     inkscape:current-layer="g13">
    <inkscape:grid
       id="grid1"
       units="px"
       originx="0"
       originy="0"
       spacingx="1"
       spacingy="1"
       empcolor="#0099e5"
       empopacity="0.30196078"
       color="#0099e5"
       opacity="0.14901961"
       empspacing="5"
       dotted="false"
       gridanglex="30"
       gridanglez="30"
       visible="true" />
  </sodipodi:namedview>
  <defs
     id="defs1" />
  <g
     inkscape:label="Calque 1"
     inkscape:groupmode="layer"
     id="layer1">
    <g
       id="g13"
       transform="translate(1.4217868)">
      <path
         id="text12"
         style="fill:none;stroke:#000000;stroke-linecap:round;stroke-linejoin:round;stroke-dashoffset:10.9;paint-order:stroke fill markers"
         d="M 6.0098538 5.4628906 C 5.6661042 5.4628906 5.2871971 5.5097658 4.8731351 5.6074219 C 4.459073 5.705078 4.0137596 5.8515627 3.5371976 6.0429688 L 3.5371976 7.2382812 C 4.0059471 6.9765628 4.4454011 6.7812499 4.855557 6.6523438 C 5.269619 6.5234376 5.662198 6.4570312 6.0332913 6.4570312 C 6.5567283 6.4570312 6.9805573 6.6035159 7.3047757 6.8964844 C 7.6329004 7.1894529 7.7969632 7.570313 7.7969632 8.0351562 C 7.7969632 8.3203122 7.7207912 8.6113284 7.5684476 8.9082031 C 7.4200102 9.2011716 7.1563378 9.5605473 6.777432 9.9863281 C 6.5782133 10.21289 6.0899312 10.71875 5.3125882 11.503906 C 4.5391515 12.285155 3.9278222 12.906251 3.4786038 13.371094 L 3.4786038 14.367188 L 9.0332913 14.367188 L 9.0332913 13.371094 L 4.902432 13.371094 C 5.855556 12.398439 6.5938388 11.642578 7.1172757 11.103516 C 7.6407127 10.560548 7.9512602 10.232422 8.0489163 10.119141 C 8.4043848 9.6816412 8.6485259 9.3027341 8.7813382 8.9824219 C 8.9180568 8.6582035 8.9864163 8.3164059 8.9864163 7.9570312 C 8.9864163 7.1992195 8.7168845 6.5957027 8.1778226 6.1425781 C 7.6387606 5.6894536 6.9161029 5.4628906 6.0098538 5.4628906 z M 14.048916 5.4628906 C 13.068449 5.4628906 12.318447 5.8515633 11.798916 6.6289062 C 11.283292 7.4023429 11.025479 8.527345 11.025479 10.003906 C 11.025479 11.476561 11.283292 12.601563 11.798916 13.378906 C 12.318447 14.152343 13.068449 14.539062 14.048916 14.539062 C 15.029385 14.539062 15.777433 14.152343 16.293057 13.378906 C 16.812588 12.601563 17.072354 11.476561 17.072354 10.003906 C 17.072354 8.527345 16.812588 7.4023429 16.293057 6.6289062 C 15.777433 5.8515633 15.029385 5.4628906 14.048916 5.4628906 z M 14.048916 6.4003906 C 14.662197 6.4003906 15.121182 6.6992194 15.425869 7.3007812 C 15.734462 7.8984369 15.88876 8.8007823 15.88876 10.003906 C 15.88876 11.203124 15.734462 12.103516 15.425869 12.705078 C 15.121182 13.302734 14.662197 13.601562 14.048916 13.601562 C 13.439542 13.601563 12.980557 13.302734 12.671963 12.705078 C 12.367276 12.103516 12.214932 11.203124 12.214932 10.003906 C 12.214932 8.8007823 12.367276 7.8984369 12.671963 7.3007812 C 12.980557 6.6992194 13.439542 6.4003906 14.048916 6.4003906 z M 1.0293851 10 L 1.0293851 11.451172 L -0.4217868 11.451172 L -0.4217868 11.892578 L 1.0293851 11.892578 L 1.0293851 13.34375 L 1.4668851 13.34375 L 1.4668851 11.892578 L 2.9161038 11.892578 L 2.9161038 11.451172 L 1.4668851 11.451172 L 1.4668851 10 L 1.0293851 10 z " />
    </g>
  </g>
</svg>
