<?xml version="1.0" encoding="UTF-8" standalone="no"?>
<!-- Created with Inkscape (http://www.inkscape.org/) -->

<svg
   width="20"
   height="20"
   viewBox="0 0 20 20"
   version="1.1"
   id="svg1"
   inkscape:version="1.3.2 (091e20ef0f, 2023-11-25)"
   sodipodi:docname="plus50.svg"
   xmlns:inkscape="http://www.inkscape.org/namespaces/inkscape"
   xmlns:sodipodi="http://sodipodi.sourceforge.net/DTD/sodipodi-0.dtd"
   xmlns="http://www.w3.org/2000/svg"
   xmlns:svg="http://www.w3.org/2000/svg">
  <sodipodi:namedview
     id="namedview1"
     pagecolor="#ffffff"
     bordercolor="#000000"
     borderopacity="0.25"
     inkscape:showpageshadow="2"
     inkscape:pageopacity="0.0"
     inkscape:pagecheckerboard="0"
     inkscape:deskcolor="#d1d1d1"
     inkscape:document-units="mm"
     showgrid="true"
     inkscape:zoom="45.254834"
     inkscape:cx="11.98767"
     inkscape:cy="12.009767"
     inkscape:window-width="2511"
     inkscape:window-height="1401"
     inkscape:window-x="0"
     inkscape:window-y="0"
     inkscape:window-maximized="0"
     inkscape:current-layer="g13">
    <inkscape:grid
       id="grid1"
       units="px"
       originx="0"
       originy="0"
       spacingx="1"
       spacingy="1"
       empcolor="#0099e5"
       empopacity="0.30196078"
       color="#0099e5"
       opacity="0.14901961"
       empspacing="5"
       dotted="false"
       gridanglex="30"
       gridanglez="30"
       visible="true" />
  </sodipodi:namedview>
  <defs
     id="defs1" />
  <g
     inkscape:label="Calque 1"
     inkscape:groupmode="layer"
     id="layer1">
    <g
       id="g13"
       transform="translate(1.4217868)">
      <path
         id="text12"
         style="fill:none;stroke:#000000;stroke-linecap:round;stroke-linejoin:round;stroke-dashoffset:10.9;paint-order:stroke fill markers"
         d="M 14.048916 5.4628906 C 13.068449 5.4628906 12.318447 5.8515633 11.798916 6.6289062 C 11.283292 7.4023429 11.025479 8.527345 11.025479 10.003906 C 11.025479 11.476561 11.283292 12.601563 11.798916 13.378906 C 12.318447 14.152343 13.068449 14.539062 14.048916 14.539062 C 15.029385 14.539062 15.777433 14.152343 16.293057 13.378906 C 16.812588 12.601563 17.072354 11.476561 17.072354 10.003906 C 17.072354 8.527345 16.812588 7.4023429 16.293057 6.6289062 C 15.777433 5.8515633 15.029385 5.4628906 14.048916 5.4628906 z M 3.8946194 5.6210938 L 3.8946194 10.013672 C 4.2227441 9.8652348 4.5430573 9.7558593 4.855557 9.6855469 C 5.1719628 9.6152345 5.4883697 9.5820312 5.8047757 9.5820312 C 6.4805563 9.5820312 7.0157136 9.7597659 7.4102445 10.115234 C 7.8047753 10.470703 8.0020413 10.951173 8.0020413 11.560547 C 8.0020413 12.169922 7.8047753 12.652344 7.4102445 13.007812 C 7.0157136 13.363281 6.4805563 13.541016 5.8047757 13.541016 C 5.3868074 13.541016 4.9903222 13.494141 4.6153226 13.400391 C 4.240323 13.306641 3.877041 13.166015 3.5254788 12.974609 L 3.5254788 14.164062 C 3.9317284 14.289062 4.3243073 14.382813 4.7032132 14.445312 C 5.0860254 14.507812 5.4610261 14.539062 5.8282132 14.539062 C 6.8946184 14.539062 7.7207919 14.277343 8.3067288 13.757812 C 8.8926658 13.234376 9.1856351 12.501953 9.1856351 11.560547 C 9.1856351 10.646486 8.9004783 9.9218747 8.3301663 9.3867188 C 7.7598544 8.851563 6.9864154 8.5839844 6.0098538 8.5839844 C 5.837979 8.5839844 5.6661037 8.5996094 5.4942288 8.6308594 C 5.322354 8.6582029 5.1504787 8.7031248 4.9786038 8.7617188 L 4.9786038 6.6152344 L 8.5411038 6.6152344 L 8.5411038 5.6210938 L 3.8946194 5.6210938 z M 14.048916 6.4003906 C 14.662197 6.4003906 15.121182 6.6992194 15.425869 7.3007812 C 15.734462 7.8984369 15.88876 8.8007823 15.88876 10.003906 C 15.88876 11.203124 15.734462 12.103516 15.425869 12.705078 C 15.121182 13.302734 14.662197 13.601562 14.048916 13.601562 C 13.439542 13.601563 12.980557 13.302734 12.671963 12.705078 C 12.367276 12.103516 12.214932 11.203124 12.214932 10.003906 C 12.214932 8.8007823 12.367276 7.8984369 12.671963 7.3007812 C 12.980557 6.6992194 13.439542 6.4003906 14.048916 6.4003906 z M 1.0293851 10 L 1.0293851 11.451172 L -0.4217868 11.451172 L -0.4217868 11.892578 L 1.0293851 11.892578 L 1.0293851 13.34375 L 1.4668851 13.34375 L 1.4668851 11.892578 L 2.9161038 11.892578 L 2.9161038 11.451172 L 1.4668851 11.451172 L 1.4668851 10 L 1.0293851 10 z " />
    </g>
  </g>
</svg>
